<svg width="17" height="14" viewBox="0 0 17 14" fill="none" xmlns="http://www.w3.org/2000/svg">
<path d="M3 11.3947V6.89474C3 6.47632 3.11458 6.14276 3.34375 5.89408C3.57292 5.64539 3.875 5.45592 4.25 5.32566C4.625 5.19539 5.05208 5.10855 5.53125 5.06513C6.01042 5.02171 6.5 5 7 5C7.55 5 8.06875 5.02171 8.55625 5.06513C9.04375 5.10855 9.46875 5.19539 9.83125 5.32566C10.1937 5.45592 10.4792 5.64539 10.6875 5.89408C10.8958 6.14276 11 6.47632 11 6.89474V11.3947C11 11.8605 10.8313 12.2533 10.4938 12.573C10.1562 12.8928 9.74167 13.0526 9.25 13.0526L10 13.7632V14H9L8 13.0526H6L5 14H4V13.7632L4.75 13.0526C4.25833 13.0526 3.84375 12.8928 3.50625 12.573C3.16875 12.2533 3 11.8605 3 11.3947ZM7 5.94737C6.11667 5.94737 5.47083 5.99671 5.0625 6.09539C4.65417 6.19408 4.375 6.30263 4.225 6.42105H9.825C9.7 6.28684 9.43125 6.17434 9.01875 6.08355C8.60625 5.99276 7.93333 5.94737 7 5.94737ZM4 8.78947H6.5V7.36842H4V8.78947ZM9.25 9.73684H4H10H9.25ZM7.5 8.78947H10V7.36842H7.5V8.78947ZM5.25 11.6316C5.46667 11.6316 5.64583 11.5645 5.7875 11.4303C5.92917 11.2961 6 11.1263 6 10.9211C6 10.7158 5.92917 10.5461 5.7875 10.4118C5.64583 10.2776 5.46667 10.2105 5.25 10.2105C5.03333 10.2105 4.85417 10.2776 4.7125 10.4118C4.57083 10.5461 4.5 10.7158 4.5 10.9211C4.5 11.1263 4.57083 11.2961 4.7125 11.4303C4.85417 11.5645 5.03333 11.6316 5.25 11.6316ZM8.75 11.6316C8.96667 11.6316 9.14583 11.5645 9.2875 11.4303C9.42917 11.2961 9.5 11.1263 9.5 10.9211C9.5 10.7158 9.42917 10.5461 9.2875 10.4118C9.14583 10.2776 8.96667 10.2105 8.75 10.2105C8.53333 10.2105 8.35417 10.2776 8.2125 10.4118C8.07083 10.5461 8 10.7158 8 10.9211C8 11.1263 8.07083 11.2961 8.2125 11.4303C8.35417 11.5645 8.53333 11.6316 8.75 11.6316ZM4.75 12.1053H9.25C9.46667 12.1053 9.64583 12.0382 9.7875 11.9039C9.92917 11.7697 10 11.6 10 11.3947V9.73684H4V11.3947C4 11.6 4.07083 11.7697 4.2125 11.9039C4.35417 12.0382 4.53333 12.1053 4.75 12.1053ZM7 6.42105H9.825H4.225H7Z" fill="white"/>
<path d="M0.5 14L0.5 5.52395C0.5 5.19581 0.660992 4.88854 0.93079 4.70176L6.52491 0.828907C6.81887 0.625401 7.1991 0.594311 7.52221 0.747362L15.9281 4.72909C16.2773 4.89453 16.5 5.24638 16.5 5.63283V14" stroke="white"/>
<path d="M12 13V12H17V14H13.25V13H12Z" fill="white"/>
<path d="M14 8H14.9C15.0105 8 15.1 8.08954 15.1 8.2L15.1 12" stroke="white" stroke-width="0.2"/>
</svg>
